<svg xmlns="http://www.w3.org/2000/svg" width="72" height="72"><path fill="none" fill-rule="evenodd" d="M8 0a8 8 0 0 0-8 8v56a8 8 0 0 0 8 8h56a8 8 0 0 0 8-8V8a8 8 0 0 0-8-8H8zm8.35 10c3.507 0 6.347 2.864 6.347 6.396 0 3.533-2.84 6.399-6.347 6.399-3.508 0-6.35-2.866-6.35-6.399C10 12.864 12.842 10 16.35 10zm33.033 16.273C56.736 26.273 62 30.764 62 40.051V62H51.316V43.803c0-4.99-1.896-7.778-5.845-7.778-4.296 0-6.541 2.902-6.541 7.778V62H28.633V27.334H38.93v4.668s3.096-5.729 10.453-5.729zm-38.35 1.061H21.77V62H11.033V27.334z" style="fill:#fff;fill-opacity:1"/></svg>