<?xml version="1.0" encoding="UTF-8"?>
<svg version="1.1" viewBox="0 0 639.27 864.27" xmlns="http://www.w3.org/2000/svg">
<g transform="translate(-113.99 -127.65)">
<ellipse cx="432.88" cy="580.29" rx="240.15" ry="359.86" fill="#fff" stroke="#fff" stroke-width="10.462"/>
<path d="m297.5 931.27c-32.274-29.903-62.77-55.468-66.932-60.458-18.131-21.738-31.947-51.866-37.238-86.348-1.0308-6.7164-2.0926-26.648-1.9072-53.494 0.15279-22.125 2.258-50.601 2.3959-50.739s41.751 68.587 79.266 126l50.902 74.091 107.78 51.632 107.78-51.632 48.942-71.041c37.357-57.149 68.155-115.24 71.053-118.62l11.341-13.223 3.698 52.22c2.9976 42.33-1.1924 48.77-3.5897 59.26-7.5352 32.971-20.777 65.311-39.172 85.018-4.2932 4.5997-36.811 30.771-67.689 59.412l-64.052 53.575-68.15 1-67.83-1z" fill="#1e0c06"/>
<path d="m190.86 666.5 133.13 213.82 107.78 51.632 107.78-51.632 133.13-213.82" fill="none" stroke="#000" stroke-width="10"/>
<path d="m190.73 524 38.551-67v-84.833s84.672 39.786 199.06 16.578c95.541-33.778 206.39-66.826 206.39 68.255l38.531 67v112.46l48.501-59.462v-235.5s-9.9466-56.364-44.76-72.113c0 0 4.9733-83.717-141.74-111.9l-56.463 32.599v-62.439l-130.57 75.386v-65.439s-73.233 33.984-87.324 88.69l-24.355-42.184s-41.127 43.012-44.442 80.312c0 0-39.786 19.893-43.931 84.546v228.04l42.552 58.168z" fill="#1e0c06" stroke="#fff" stroke-width="10"/>
<path d="m673.26 524v175.78s6.9104 128-51.776 182.42c-58.116 53.889-121.41 104.72-121.41 104.72h-135.98s-63.474-50.826-121.59-104.72c-58.686-54.418-51.776-182.42-51.776-182.42v-175.78" fill="none" stroke="#fff" stroke-width="10"/>
<g transform="translate(-5.9273,4)">
<g transform="translate(-1.8878,-2)">
<circle cx="328.96" cy="566.94" r="20" fill="#1e260d" stroke="#000" stroke-width="10"/>
<circle cx="335" cy="560" r="6" fill="#fff"/>
</g>
<g transform="translate(7.2429,-2.5204)" stroke="#000">
<path d="m373.71 566.34c-58.533-56.124-106.15 0-106.15 0s47.21 56.124 106.15 0z" fill="none" stroke="#000" stroke-width="10"/>
</g>
<circle transform="scale(-1,1)" cx="-548.78" cy="566.94" r="20" fill="#1e260d" stroke="#000" stroke-width="10"/>
<circle transform="scale(-1,1)" cx="-555" cy="560" r="6" fill="#fff"/>
<g transform="matrix(-1 0 0 1 868.61 -.52036)" stroke="#000">
<path d="m373.71 566.34c-58.533-56.124-106.15 0-106.15 0s47.21 56.124 106.15 0z" fill="none" stroke="#000" stroke-width="10"/>
</g>
</g>
<g transform="translate(-2.2639,-6)" fill="none" stroke="#1e0c06" stroke-width="25">
<path d="m240.74 528.57 41.158-26.403 104.84 10.648"/>
<path d="m627.79 528.57-41.158-26.403-104.84 14.648"/>
</g>
<g transform="translate(-8.7743,-12)" fill="none" stroke="#000" stroke-width="10">
<path d="m440.21 557v184.05h-54.528v-47.234"/>
<path d="m440.21 741.05h55.658v-47.234"/>
</g>
<g fill="#fff" stroke="#fff" stroke-width="10">
<path d="m191.67 636.46-43.498-59.462s-31.21-25.918-29.075 24.599l39.341 134.4s24.786 10.849 32.963-7.18"/>
<path d="m673.04 636.46 48.712-59.462s36.288-21 23.861 24.599l-41.979 134.4s-23.642 11.361-30.465-7.1796"/>
</g>
<path d="m405.94 851.65v20.624h55.359v-20.624" fill="#1e0c06" stroke="#000" stroke-width="10"/>
<path d="m356.68 748.29-51.695 46.793-7.9222 41.99 13.229 21.247 11.682-51.892 41.816-37.084 66.43 4.373 66.432-4.373 41.814 37.084 12.874 54.949 13.211-21.219-9.097-45.077-51.695-46.793-73.539 5.2695z" fill="#1e0c06" stop-color="#000000" stroke="#000" stroke-width="10"/>
<g transform="translate(0,-16)" stroke="#000">
<path d="m339.9 826.42 36.202-16.247h111.52l36.376 16.395-42.649 36.331h-100.89z" fill="#e06761" stroke-width="10"/>
<path d="m339.9 826.42 48.633 7.97h86.084l49.381-7.822" fill="none" stroke-width="10.669"/>
</g>
</g>
</svg>
